<?xml version="1.0" standalone="no"?><!DOCTYPE svg PUBLIC "-//W3C//DTD SVG 1.1//EN" "http://www.w3.org/Graphics/SVG/1.1/DTD/svg11.dtd"><svg t="1562032150613" class="icon" viewBox="0 0 1024 1024" version="1.1" xmlns="http://www.w3.org/2000/svg" p-id="24461" xmlns:xlink="http://www.w3.org/1999/xlink" width="64" height="64"><defs><style type="text/css"></style></defs><path d="M557.44 512l244.335-244.336c15.733-15.732 15.733-41.133 0-56.777-15.732-15.733-41.132-15.733-56.777 0L500.662 455.223 267.664 222.225c-15.732-15.733-41.133-15.733-56.777 0-15.733 15.732-15.733 41.132 0 56.777L443.797 512l-232.91 232.998c-15.733 15.732-15.733 41.133 0 56.777 15.732 15.733 41.133 15.733 56.777 0l232.998-232.998 244.336 244.336c15.732 15.733 41.133 15.733 56.777 0 15.733-15.732 15.733-41.133 0-56.777L557.44 512z" p-id="24462" fill="#bfbfbf"></path></svg>