<?xml version="1.0" standalone="no"?><!DOCTYPE svg PUBLIC "-//W3C//DTD SVG 1.1//EN" "http://www.w3.org/Graphics/SVG/1.1/DTD/svg11.dtd"><svg t="1561439596101" class="icon" viewBox="0 0 1024 1024" version="1.1" xmlns="http://www.w3.org/2000/svg" p-id="16567" xmlns:xlink="http://www.w3.org/1999/xlink" width="32" height="32"><defs><style type="text/css"></style></defs><path d="M518.4 876.8V1024l-441.6-256V256l121.6 70.4v371.2z" fill="#0A8F72" p-id="16568"></path><path d="M518.4 761.6V512l217.6-128v57.6l102.4-57.6v-57.6L960 256v512l-441.6 256v-147.2l320-179.2V435.2l-192 108.8v108.8l89.6-51.2v38.4z" fill="#0EBE97" p-id="16569"></path><path d="M838.4 326.4l-320-179.2-320 179.2L76.8 256l441.6-256L960 256z" fill="#10D8AB" p-id="16570"></path><path d="M518.4 512v249.6L300.8 640V384z" fill="#0A8F72" p-id="16571"></path><path d="M736 384L518.4 512 300.8 384l217.6-121.6z" fill="#10D8AB" p-id="16572"></path></svg>