<?xml version="1.0" standalone="no"?><!DOCTYPE svg PUBLIC "-//W3C//DTD SVG 1.1//EN" "http://www.w3.org/Graphics/SVG/1.1/DTD/svg11.dtd"><svg t="1561690612852" class="icon" viewBox="0 0 1024 1024" version="1.1" xmlns="http://www.w3.org/2000/svg" p-id="1764" xmlns:xlink="http://www.w3.org/1999/xlink" width="32" height="32"><defs><style type="text/css"></style></defs><path d="M76.8 128a51.2 51.2 0 0 1 51.2-51.2h768a51.2 51.2 0 0 1 51.2 51.2v768a51.2 51.2 0 0 1-51.2 51.2h-768a51.2 51.2 0 0 1-51.2-51.2z m614.4 238.08l-235.52 235.52-125.44-126.976a25.6 25.6 0 0 0-36.352 36.352l141.312 140.8a30.72 30.72 0 0 0 43.52 0l249.856-249.856a25.6 25.6 0 1 0-36.352-36.352z" fill="#3363FC" p-id="1765"></path></svg>